<?xml version="1.0" encoding="UTF-8"?><svg id="Layer_2" xmlns="http://www.w3.org/2000/svg" viewBox="0 0 359.19 359.4"><defs><style>.cls-1{stroke-width:0px;}</style></defs><g id="Layer_1-2"><path class="cls-1" d="m289.16,230.76c18.29.05,35.99-3.07,53.25-9,7.77-2.67,14.87.68,16.5,7.98.56,2.51.28,5.55-.62,7.98-16.79,45.38-46.79,79.22-89.71,101.47-28.61,14.84-59.28,21.88-91.36,19.86-70.57-4.43-123.18-38-156.8-100.28C5,230.21-.91,199.17.11,166.75,2.44,93.4,52.32,25.36,121.68.98c4.91-1.73,9.38-1.31,13.2,2.32,4.08,3.89,4.56,8.63,2.74,13.78-8.23,23.34-10.86,47.36-7.85,71.86,4.48,36.47,19.52,68.11,45.52,94.14,31.37,31.41,69.6,46.88,113.87,47.68ZM107.95,33.65C51.8,63.03,12.47,131.32,27.14,205.86c14.5,73.63,79.13,127.9,153.94,129.43,72.94,1.49,125.74-44.82,144.22-83.85-63.73,10.19-120.27-5.11-166.21-50.96-46.05-45.96-61.42-102.59-51.15-166.83Z"/></g></svg>