<?xml version="1.0" encoding="UTF-8"?><svg id="Layer_2" xmlns="http://www.w3.org/2000/svg" viewBox="0 0 335.59 335.68"><defs><style>.cls-1{fill:#fff;stroke-width:0px;}</style></defs><g id="Layer_1-2"><path class="cls-1" d="m114.15,61.65c4.64,4.52,9.27,9,13.87,13.53,3.6,3.54,4.93,7.67,3.14,12.59-2.1,5.77-5.3,8.11-11.51,8.11-22.96.03-45.92.01-68.88.01-1.37,0-2.75.05-4.12-.03-5.88-.37-10.49-4.74-10.51-10.62-.11-24.83-.12-49.66.02-74.48.03-4.59,2.52-7.84,7.03-9.6,4.96-1.93,9.31-1.37,13.09,2.34,6.68,6.56,13.28,13.19,19.87,19.83.96.97,1.71,2.16,2.65,1.91,11.22-5.3,22.16-11.33,33.72-15.75C134.74.99,157.97-1.35,181.64.7c42.69,3.7,78.79,21.3,108.16,52.3,24.81,26.18,39.58,57.35,44.34,93.22,11.31,85.3-44.59,164.27-125.42,184.05-55.86,13.67-106.3,1.3-150.23-35.76-29.08-24.53-47.03-56.04-55.07-93.19C-.06,185.23-.36,168.89.25,152.56c.37-9.99,10.31-19.54,20.6-20.64,12.36-1.32,23.17,5.68,26.3,17.3.73,2.71.93,5.67.84,8.49-.86,25.07,3.5,48.96,16.73,70.6,19.87,32.5,48.54,52.52,86.43,57.81,63.11,8.81,121.18-32.47,134.09-94.64,13.09-63-28.16-126.56-91.17-140.5-26.76-5.92-52.47-2.77-77.2,8.89-.56.27-1.13.53-1.67.83-.2.11-.35.31-1.05.95Z"/></g></svg>