<?xml version="1.0" encoding="UTF-8"?><svg id="Layer_2" xmlns="http://www.w3.org/2000/svg" viewBox="0 0 287.62 336.03"><defs><style>.cls-1{fill:#fff;stroke-width:0px;}</style></defs><g id="Layer_1-2"><path class="cls-1" d="m287.62,162.55c-.6,16.19-7.47,28.71-21,37.3-40.4,25.68-80.87,51.25-121.31,76.86-27.81,17.6-55.56,35.29-83.45,52.76-23.74,14.87-53.51,3.33-60.55-23.35-.82-3.1-1.24-6.4-1.24-9.61C0,211.26-.03,126,.03,40.74.05,9.15,33-10.15,60.35,5.6c61.55,35.44,122.96,71.12,184.42,106.71,7.12,4.12,14.35,8.06,21.33,12.4,14.01,8.7,21.06,21.47,21.52,37.85Z"/></g></svg>