<?xml version="1.0" encoding="UTF-8"?><svg id="Layer_2" xmlns="http://www.w3.org/2000/svg" viewBox="0 0 287.55 335.42"><defs><style>.cls-1{fill:#fff;stroke-width:0px;}</style></defs><g id="Layer_1-2"><path class="cls-1" d="m0,167.7c0-43.41,0-86.81,0-130.22C.01,15.21,15.27.03,37.64.02c15.35,0,30.69-.04,46.04,0,20.35.06,36.1,15.68,36.1,35.97.04,87.81.04,175.62,0,263.43,0,20.29-15.76,35.9-36.11,35.97-15.59.05-31.19.03-46.78,0C15.54,335.37.02,319.93.01,298.67c-.02-43.66,0-87.31,0-130.97Z"/><path class="cls-1" d="m167.75,167.52c0-43.41,0-86.81,0-130.22C167.76,15.28,183.08.03,205.19.02c15.35,0,30.69-.03,46.04,0,20.6.05,36.29,15.62,36.3,36.16.03,87.69.03,175.37,0,263.06,0,20.54-15.69,36.11-36.3,36.16-15.47.04-30.94.02-46.41,0-21.6-.02-37.05-15.4-37.06-36.91-.02-43.66,0-87.31,0-130.97Z"/></g></svg>