<?xml version="1.0" encoding="UTF-8"?><svg id="Layer_2" xmlns="http://www.w3.org/2000/svg" viewBox="0 0 34.05 33.71"><defs><style>.cls-1{fill:#fff;fill-rule:evenodd;stroke-width:0px;}</style></defs><g id="_79"><path class="cls-1" d="m29.08,28.78c-2.04,2-4.59,3.53-7.44,4.29,1.45-2,2.59-4.25,3.44-6.76h6.04c-.6.89-1.32,1.7-2.04,2.46h0Zm-15.3,4.63h0c-1.62-2.04-2.93-4.42-3.91-7.1h6.5v7.4c-.89-.04-1.74-.13-2.59-.3h0ZM0,17.47h7.01c.04,2.68.47,5.23,1.15,7.61H2.17C.85,22.83.08,20.23,0,17.47h0ZM17.68,7.35h0V0c.68,0,1.4.09,2.08.21,1.66,2.04,3.02,4.46,4,7.14h-6.08Zm6.46,1.23h0c.72,2.38,1.15,4.93,1.19,7.61h-7.65v-7.61h6.46Zm-7.78-1.23h-6.5c.98-2.64,2.3-5.06,3.91-7.06.85-.17,1.7-.3,2.59-.3v7.35Zm0,1.23h0v7.61h-8.08c.04-2.68.47-5.23,1.19-7.61h6.89Zm-9.35,7.61H0c.08-2.76.85-5.36,2.17-7.61h5.99c-.68,2.38-1.1,4.97-1.15,7.61h0Zm1.28,1.28h8.08v7.61h-6.89c-.72-2.38-1.15-4.93-1.19-7.61h0Zm9.39,8.84h6.08c-.98,2.68-2.34,5.14-4,7.18-.68.09-1.4.17-2.08.21v-7.4Zm0-1.23h0v-7.61h7.65c-.04,2.68-.47,5.23-1.15,7.61h-6.5Zm8.93-7.61h7.44c-.13,2.81-.89,5.4-2.21,7.69v-.09h-6.38c.68-2.38,1.11-4.93,1.15-7.61h0Zm0-1.28h0c-.04-2.63-.47-5.23-1.15-7.61h6.42c1.27,2.25,2.04,4.85,2.17,7.61h-7.44Zm4.51-8.84h-6.04c-.85-2.47-2-4.76-3.44-6.76,2.85.81,5.4,2.3,7.44,4.29.72.77,1.45,1.57,2.04,2.47h0ZM4.97,4.89h0c1.91-1.87,4.25-3.32,6.89-4.12-1.36,1.96-2.47,4.17-3.32,6.59H2.93c.6-.89,1.28-1.7,2.04-2.47h0Zm-2.04,21.42h5.61c.85,2.42,1.96,4.63,3.32,6.63-2.64-.85-4.97-2.3-6.89-4.17-.76-.76-1.44-1.57-2.04-2.46h0Z"/></g></svg>