<?xml version="1.0" encoding="UTF-8"?><svg id="Layer_2" xmlns="http://www.w3.org/2000/svg" viewBox="0 0 538 564.12"><defs><style>.cls-1{fill:#fff;}.cls-1,.cls-2{stroke-width:0px;}.cls-2{fill:#0f0f10;}</style></defs><g id="Layer_2-2"><rect class="cls-2" width="538" height="564.12" rx="124.33" ry="124.33"/><path class="cls-1" d="m108.24,236.63c.01-9.23.03-18.47.04-27.69-1.18,9.23-1.37,18.46-.04,27.69Z"/><path class="cls-1" d="m425.38,183.08c-2.14-6.82-4.1-13.75-6.3-20.59-.06-.36-.05-.76-.19-1.09-14.26-34.27-36.17-61.84-68.83-80.54-9.58-5.48-19.37-10.28-29.66-13.96-25.98-9.3-52.69-11.53-79.87-6.55-12.98,2.37-25.66,6-37.66,11.64-14,6.58-27.21,14.4-38.71,24.89-10.42,9.51-19.66,19.99-27.55,31.7-4.3,6.39-8.56,12.77-11.72,19.83-.13.16-.19.34-.19.54-.69.33-.81.92-.73,1.6-9.09,18.42-14.65,37.8-15.69,58.38-.01,9.23-.03,18.47-.04,27.69,1.33,20.58,6.52,40.2,14.51,59.16,10.82,25.69,25.5,49.25,40.33,72.7,18.53,29.3,39.21,57.1,60.62,84.34,13.33,16.96,26.76,33.83,40.18,50.71,2.89,3.63,6.12,3.73,9.45.45.7-.7,1.36-1.46,1.98-2.24,12.17-15.49,24.37-30.95,36.47-46.49,24.6-31.57,48.68-63.52,69.75-97.62,15.51-25.12,30.27-50.55,39.51-78.89,4.94-15.15,8.31-30.44,9.26-46.25,1-16.7.18-33.15-4.92-49.42h0Zm-35.97,98.06c-17.32,34.86-44.68,57.9-82.29,67.94-50.05,13.36-94.69,2.91-132.96-32.41-12.82-11.83-23.04-25.93-29.43-42.08-10.11-25.52-13.11-52.05-7.72-79.28,2.43-12.29,7.18-23.67,12.52-34.89.37-.76.58-1.6.87-2.4h-.1c1.47-.49,1.67-1.9,2.24-3.06,4.31-6.23,8.23-12.72,12.82-18.77,9.9-13.04,22.03-23.6,35.88-32.16,27.1-16.75,56.6-22.08,87.88-17.09,23.9,3.82,44.79,14.48,63.5,29.72,11.03,8.98,20.23,19.5,28,31.35.26.4.67.69,1.01,1.03h0c.49.76.99,1.51,1.48,2.27h-.04c1.41.31,2.56.91,3.39,1.79-.82-.88-1.98-1.48-3.39-1.79,8.36,14.36,14.98,29.49,17.97,45.87,5.31,29.18,1.62,57.29-11.63,83.95h0Z"/><path class="cls-1" d="m386.93,235.68c-13.96-9.5-29.39-14.58-46.2-15.36-23.46-1.09-45.03,5.26-65.43,16.51-12.33,6.8-24.46,13.98-37.23,19.95-20.58,9.63-42.02,13.45-64.62,9.9-6.39-1-12.55-2.66-19.02-5.81,1.46,5.36,3.02,9.85,5.42,14.05,2.25,5,5.03,9.69,8.03,14.27.86,1.31,1.98,2.05,3.54,2.46,8.14,2.19,16.37,2.93,24.79,2.22,11.44-.95,22.05-4.92,32.77-8.52,23.02-7.75,46.54-10.31,70.62-6.82,21.3,3.09,40.74,10.89,58.29,23.37,1.11.79,1.78,1.46,2.91-.14,4.01-5.7,8.47-11.08,12.11-17.05,7.06-11.6,11.81-24.05,13.95-37.48,1.21-2.37,1.15-5.02,1.73-7.53.44-1.93-.11-2.98-1.65-4.02h0Z"/><path class="cls-1" d="m348.17,310.52c-19.23-12.08-39.96-19.39-62.77-20.66-18.84-1.05-36.93,2.31-54.65,8.38-11.06,3.78-22.08,7.85-33.94,8.37-4.26.19-8.54.03-13.77.03,3.63,4.11,6.78,7,10.37,9.43.95.79,1.85,1.66,2.87,2.34,28.3,19.19,59.31,26.86,93.21,21.39,19.09-3.09,36.82-9.88,52.52-21.44,2.11-1.53,4.25-3.02,6.32-4.6,1.45-1.1,1.87-1.99-.16-3.27h0Z"/><path class="cls-1" d="m342.83,127.51c17.25,12.66,29.45,29.09,37.26,49.27-1.93-.93-3.82-1.93-5.78-2.78-6.27-2.73-12.64-5.19-19.31-6.8-1.49-.36-2.51-.73-2.37-2.6.97-13.45-1.84-25.89-9.79-37.09h0Z"/><path class="cls-1" d="m388.83,207.64c-.25-3.21-.5-6.43-.78-9.66-.13-1.43-.76-2.48-2.03-3.36-8.18-5.61-17.03-9.86-26.56-12.53-17.96-5.05-35.89-4.32-53.83.51-15.69,4.22-29.72,12.11-44.09,19.3-20.04,10.03-40.5,18.52-63.38,19.45-15.33.61-29.95-1.79-43.74-8.64-5.29-2.63-5.27-2.68-5.88,3.19-.67,6.45-1.26,12.9.16,19.33.09,1.12.27,2.23.25,3.35-.1,4.58,2.44,6.92,6.37,8.85,20.17,9.88,40.66,9.61,61.67,3.06,16.12-5.03,30.19-14.06,44.86-21.96,16.52-8.4,33.17-16.52,51.69-19.69h0l9.62-1.44c.54-.02,1.07-.04,1.61-.07,6.94-.69,13.89.2,20.84.01,4.04.52,8.08,1.05,12.11,1.57,11.42,2.4,22.08,6.69,32.24,13.36-.4-5.27-.77-9.96-1.13-14.65h0Z"/><path class="cls-1" d="m192.69,128.57c.2-.26.39-.68.73-.16.03.04-.26.31-.41.48-.1-.1-.22-.21-.32-.31Z"/><path class="cls-1" d="m181.1,177.55c-.04-8.05.08-16.09,1.72-24.06,1.84-8.89,5.86-16.79,10.19-24.6-.11-.1-.22-.21-.32-.31-13.6,9.68-23.39,22.47-30.6,37.38-.68,1.31-1.36,2.62-2.05,3.93-.55.44-.95.94-.79,1.71-.1.18-.15.37-.16.58h.07c-.48,1-.96,2-1.45,3l-.19.19.11.25c-3.06,6.13-4.5,12.78-6.33,19.31-.35,1.25.07,1.81,1.07,2.36,12.31,6.82,25.25,11.33,40.16,11.22-5.39-7.55-8.86-15.42-10.26-24.14.35-2.42-1.18-4.57-1.18-6.82h.01Z"/></g></svg>