<?xml version="1.0" encoding="UTF-8"?><svg id="Layer_2" xmlns="http://www.w3.org/2000/svg" viewBox="0 0 384 384"><defs><style>.cls-1{stroke-width:0px;}</style></defs><g id="Layer_1-2"><path class="cls-1" d="m195,0c6.47,2.99,8.61,8.1,8.35,15.07-.38,10.34-.08,20.7-.11,31.05-.02,7.54-4.64,12.54-11.43,12.44-6.59-.09-11.04-5.07-11.06-12.45-.03-10.35.28-20.71-.11-31.05-.26-6.98,1.87-12.09,8.35-15.07h6Z"/><path class="cls-1" d="m0,189c2.99-6.47,8.09-8.61,15.07-8.35,10.34.39,20.7.08,31.05.11,7.55.02,12.54,4.63,12.44,11.42-.09,6.59-5.06,11.04-12.44,11.06-10.35.03-20.71-.28-31.05.11-6.98.26-12.08-1.89-15.08-8.35v-6Z"/><path class="cls-1" d="m384,195c-2.98,6.48-8.1,8.61-15.07,8.35-10.34-.38-20.7-.08-31.06-.11-7.54-.02-12.53-4.64-12.44-11.43.09-6.59,5.05-11.03,12.44-11.05,10.35-.03,20.72.28,31.06-.11,6.97-.26,12.1,1.86,15.07,8.35v6Z"/><path class="cls-1" d="m189,384c-6.48-2.98-8.61-8.1-8.35-15.07.39-10.34.08-20.7.11-31.06.02-7.53,4.65-12.53,11.43-12.44,6.59.09,11.03,5.05,11.05,12.44.03,10.35-.28,20.72.11,31.06.26,6.98-1.89,12.08-8.35,15.08h-6Z"/><path class="cls-1" d="m192.11,96.44c52.86.14,95.67,43.09,95.44,95.76-.23,52.9-43.3,95.75-95.85,95.36-52.86-.39-95.28-42.96-95.26-95.58.02-52.8,42.96-95.68,95.66-95.54Zm-73.16,95.23c-.27,40.31,32.45,73.25,72.91,73.39,40.2.14,72.91-32.36,73.2-72.74.29-40.31-32.45-73.25-72.91-73.39-40.21-.13-72.92,32.37-73.19,72.73Z"/><path class="cls-1" d="m331.51,319.5c-.63,4.76-2.57,8.27-6.61,10.25-4.29,2.11-8.79,1.9-12.24-1.42-9.18-8.82-18.22-17.8-27-27.02-4.02-4.22-3.38-10.9.63-14.97,3.99-4.04,10.74-4.75,14.95-.75,9.32,8.86,18.34,18.03,27.25,27.29,1.59,1.65,2.05,4.38,3.02,6.62Z"/><path class="cls-1" d="m319.55,52.49c4.76.64,8.22,2.59,10.21,6.65,1.98,4.02,2.04,8.41-1.02,11.62-9.02,9.5-18.26,18.82-27.77,27.82-4.07,3.85-10.76,3.01-14.66-.89-4.02-4.02-4.7-10.77-.7-14.96,8.87-9.3,18.04-18.33,27.31-27.24,1.65-1.58,4.39-2.03,6.63-3Z"/><path class="cls-1" d="m65.7,52.91c1.42.76,4.55,1.69,6.66,3.69,8.5,8.09,16.75,16.45,24.96,24.83,4.87,4.97,4.85,11.96.22,16.4-4.53,4.35-11.29,4.22-16.14-.55-8.37-8.23-16.65-16.55-24.9-24.9-3.61-3.65-4.49-8.03-2.49-12.75,1.84-4.33,5.39-6.36,11.69-6.74Z"/><path class="cls-1" d="m65.5,331.02c-6.01-.23-9.44-2.27-11.36-6.35-1.96-4.18-1.78-8.58,1.43-11.92,8.82-9.19,17.8-18.23,27-27.02,4.32-4.13,11.19-3.48,15.25.71,4.05,4.2,4.43,10.9.22,15.28-8.65,9-17.5,17.81-26.53,26.44-1.82,1.74-4.78,2.3-6.01,2.86Z"/></g></svg>