<?xml version="1.0" encoding="UTF-8"?><svg id="Layer_2" xmlns="http://www.w3.org/2000/svg" viewBox="0 0 1815.09 605.96"><defs><style>.cls-1{fill:#d2eef7;}.cls-1,.cls-2,.cls-3,.cls-4,.cls-5,.cls-6{stroke-width:0px;}.cls-2{fill:#fff;}.cls-3{fill:#3b859d;}.cls-4{fill:#76bbd1;}.cls-5{fill:#24758e;}.cls-6{fill:#144b5f;}</style></defs><g id="Layer_1-2"><path class="cls-1" d="m1.23,238.78c.02-12.32.04-24.65.06-36.97-1.58,12.32-1.83,24.64-.06,36.97Z"/><path class="cls-1" d="m424.6,167.3c-2.86-9.11-5.47-18.36-8.41-27.49-.08-.48-.07-1.01-.25-1.45-19.03-45.75-48.28-82.56-91.89-107.52-12.79-7.32-25.86-13.72-39.59-18.64C249.78-.22,214.12-3.19,177.84,3.45c-17.33,3.17-34.25,8.01-50.27,15.54-18.69,8.79-36.32,19.22-51.68,33.23-13.91,12.69-26.25,26.68-36.78,42.32-5.74,8.53-11.43,17.05-15.64,26.47-.17.21-.25.45-.25.72-.92.44-1.08,1.23-.98,2.14C10.11,148.46,2.68,174.33,1.29,201.81c-.02,12.32-.04,24.65-.06,36.97,1.78,27.47,8.71,53.67,19.37,78.98,14.45,34.3,34.04,65.74,53.84,97.05,24.74,39.12,52.34,76.22,80.92,112.59,17.79,22.64,35.72,45.16,53.64,67.69,3.86,4.85,8.17,4.98,12.62.6.94-.93,1.82-1.95,2.64-2.99,16.24-20.68,32.53-41.32,48.69-62.06,32.84-42.15,64.99-84.79,93.11-130.32,20.71-33.53,40.41-67.48,52.75-105.32,6.59-20.22,11.09-40.63,12.36-61.74,1.34-22.29.24-44.26-6.57-65.97Zm-48.02,130.91c-23.12,46.53-59.65,77.3-109.85,90.7-66.81,17.83-126.41,3.89-177.5-43.26-17.11-15.79-30.76-34.61-39.29-56.18-13.49-34.07-17.5-69.49-10.3-105.83,3.25-16.4,9.58-31.6,16.71-46.57.49-1.02.78-2.13,1.16-3.2h0s-.09,0-.14,0c1.96-.65,2.23-2.54,2.99-4.08,5.75-8.32,10.99-16.98,17.12-25.06,13.22-17.41,29.41-31.51,47.9-42.93,36.18-22.36,75.56-29.48,117.31-22.81,31.91,5.1,59.79,19.33,84.77,39.67,14.73,11.99,27,26.03,37.38,41.85.35.53.89.92,1.35,1.38,0,0,0,0,0,0,.66,1.01,1.32,2.02,1.98,3.03h0s-.05,0-.05,0c1.88.41,3.42,1.22,4.52,2.39-1.1-1.17-2.64-1.98-4.52-2.39,11.16,19.17,20,39.37,23.99,61.23,7.09,38.95,2.16,76.48-15.52,112.07Z"/><path class="cls-5" d="m373.26,237.52c-18.63-12.68-39.23-19.46-61.68-20.51-31.32-1.46-60.11,7.02-87.35,22.04-16.46,9.08-32.65,18.66-49.7,26.63-27.48,12.85-56.09,17.95-86.27,13.22-8.53-1.34-16.75-3.55-25.39-7.75,1.95,7.15,4.03,13.15,7.23,18.75,3.01,6.67,6.72,12.94,10.72,19.05,1.15,1.75,2.64,2.73,4.73,3.29,10.87,2.92,21.85,3.91,33.09,2.97,15.27-1.27,29.44-6.57,43.75-11.38,30.73-10.34,62.13-13.76,94.28-9.1,28.43,4.12,54.39,14.54,77.81,31.2,1.48,1.05,2.38,1.95,3.89-.19,5.35-7.61,11.31-14.79,16.16-22.76,9.42-15.48,15.77-32.11,18.62-50.04,1.61-3.16,1.54-6.7,2.31-10.05.59-2.57-.15-3.98-2.2-5.37Z"/><path class="cls-6" d="m321.52,337.42c-25.67-16.12-53.34-25.89-83.8-27.58-25.15-1.4-49.3,3.09-72.96,11.19-14.77,5.05-29.48,10.48-45.31,11.18-5.69.25-11.4.04-18.38.04,4.84,5.49,9.05,9.35,13.84,12.59,1.27,1.05,2.47,2.21,3.83,3.13,37.78,25.62,79.18,35.86,124.43,28.56,25.49-4.12,49.15-13.19,70.11-28.62,2.82-2.04,5.67-4.03,8.44-6.14,1.93-1.47,2.5-2.66-.21-4.36Z"/><path class="cls-4" d="m314.4,93.12c23.03,16.9,39.31,38.84,49.74,65.78-2.57-1.24-5.1-2.58-7.72-3.71-8.37-3.64-16.88-6.93-25.78-9.08-1.99-.48-3.35-.98-3.17-3.47,1.29-17.95-2.45-34.56-13.07-49.51Z"/><path class="cls-4" d="m375.8,200.09c-.34-4.29-.67-8.59-1.04-12.89-.17-1.91-1.01-3.31-2.71-4.48-10.92-7.49-22.74-13.16-35.45-16.73-23.97-6.74-47.91-5.77-71.86.68-20.95,5.64-39.68,16.17-58.86,25.77-26.75,13.39-54.07,24.73-84.61,25.96-20.47.82-39.98-2.39-58.39-11.54-7.06-3.51-7.04-3.58-7.85,4.26-.9,8.61-1.68,17.22.21,25.8.12,1.49.36,2.98.33,4.47-.14,6.12,3.26,9.24,8.51,11.82,26.92,13.19,54.28,12.83,82.33,4.09,21.52-6.71,40.3-18.77,59.88-29.31,22.06-11.22,44.28-22.05,69.01-26.28h0c4.28-.64,8.56-1.28,12.84-1.92.72-.03,1.43-.06,2.15-.09,9.27-.92,18.54.27,27.82.02,5.39.7,10.78,1.4,16.17,2.1,15.24,3.21,29.48,8.93,43.04,17.83-.54-7.04-1.03-13.3-1.51-19.56Z"/><path class="cls-3" d="m113.96,94.53c.27-.35.52-.91.98-.22.04.06-.35.42-.55.64-.14-.14-.29-.28-.43-.42Z"/><path class="cls-4" d="m98.49,159.91c-.05-10.75.11-21.48,2.3-32.12,2.45-11.87,7.82-22.41,13.6-32.84-.15-.14-.29-.28-.43-.42-18.15,12.92-31.23,29.99-40.85,49.9-.91,1.75-1.82,3.5-2.74,5.24-.73.59-1.27,1.26-1.05,2.28-.13.24-.2.5-.22.77,0,0,.1,0,.1,0-.64,1.34-1.28,2.67-1.93,4.01,0,0-.26.26-.26.26l.15.34c-4.08,8.18-6.01,17.06-8.45,25.78-.47,1.67.1,2.41,1.43,3.15,16.43,9.11,33.71,15.13,53.61,14.98-7.19-10.08-11.83-20.59-13.7-32.22.47-3.23-1.57-6.1-1.58-9.11Z"/><polygon class="cls-2" points="624.08 197.44 586.6 64.86 537.77 64.86 537.77 261.56 571.45 261.56 571.45 124.49 607.71 239.65 640.44 239.65 676.7 121.88 676.7 261.56 710.38 261.56 710.38 64.86 661.55 64.86 624.08 197.44"/><path class="cls-2" d="m828.21,248.33v13.23h33.68v-90.23c0-11-2.28-20.4-6.83-28.21-4.55-7.8-11.16-13.75-19.82-17.86-8.66-4.1-19.12-6.16-31.39-6.16-11.18,0-21.37,1.78-30.57,5.34-9.2,3.56-16.6,8.55-22.19,14.95l23,22.59c3.97-3.06,8.52-5.46,13.66-7.17,5.14-1.71,10.33-2.57,15.56-2.57,7.94,0,14.07,1.76,18.4,5.28s6.49,8.52,6.49,15.02v5.95h-33.96c-16.69,0-29.2,3.47-37.54,10.42-8.34,6.95-12.51,17.36-12.51,31.25,0,14.61,3.72,25.5,11.16,32.67,7.44,7.17,18.69,10.76,33.75,10.76,6.85,0,13.37-.88,19.55-2.64,6.18-1.76,11.32-4.4,15.42-7.91,1.68-1.44,3.04-3.01,4.13-4.71Zm-29.36-14.64c-7.13,0-12.45-1.1-15.96-3.31-3.52-2.21-5.28-5.61-5.28-10.21s1.4-7.87,4.19-10.08c2.79-2.21,6.99-3.31,12.58-3.31h33.82v12.99c0,4.78-2.41,8.3-7.24,10.55-4.83,2.26-12.2,3.38-22.12,3.38Z"/><path class="cls-2" d="m977.43,160.24l21.64-30.17c-3.52-3.61-7.64-6.34-12.38-8.18-4.73-1.85-10.03-2.77-15.9-2.77-7.4,0-14.18,2.32-20.36,6.97-4.77,3.59-8.85,8.3-12.24,14.11v-19.05h-39.77v140.42h39.77v-79.41c0-8.57,2.05-15.26,6.16-20.09,4.1-4.82,9.9-7.24,17.38-7.24,3.43,0,6.45.45,9.06,1.35,2.62.9,4.82,2.26,6.63,4.06Z"/><rect class="cls-2" x="1014.63" y="64.86" width="37.07" height="37.07"/><rect class="cls-2" x="1014.63" y="121.14" width="37.07" height="140.42"/><path class="cls-2" d="m1157.89,119.11c-8.93,0-16.35,2.21-22.25,6.63-4.64,3.47-8.77,8.34-12.38,14.54v-19.14h-37.07v140.42h37.07v-84.82c0-6.94,1.87-12.33,5.61-16.17,3.74-3.83,9.04-5.75,15.89-5.75,7.21,0,12.78,1.89,16.71,5.68,3.92,3.79,5.89,9.11,5.89,15.96v85.09h37.07v-85.23c0-18.22-4.06-32.31-12.17-42.28-8.12-9.96-19.57-14.95-34.36-14.95Z"/><path class="cls-2" d="m1353.38,242.62l-24.22-21.51c-3.97,3.25-8.39,5.75-13.26,7.51-4.87,1.76-9.79,2.64-14.75,2.64-9.65,0-17.16-2.61-22.52-7.85-4.33-4.22-6.92-9.86-7.75-16.91h86.14v-9.2c0-16.5-2.28-30.59-6.83-42.28-4.55-11.68-11.21-20.58-19.95-26.72-8.75-6.13-19.26-9.2-31.52-9.2-13.08,0-24.24,2.57-33.48,7.71-9.25,5.14-16.28,12.63-21.1,22.46-4.82,9.83-7.24,21.69-7.24,35.58v15.83c0,13.26,2.52,24.6,7.58,34.02,5.05,9.43,12.38,16.6,21.98,21.51,9.61,4.92,21.17,7.37,34.7,7.37,9.29,0,18.49-1.83,27.6-5.48,9.11-3.65,17.32-8.81,24.62-15.49Zm-54.65-89.83c6.85,0,12.33,2.21,16.44,6.63,4.1,4.42,6.65,10.69,7.64,18.8l.41,3.25h-52.59c.3-8.83,2.75-15.73,7.34-20.7,4.91-5.32,11.84-7.98,20.77-7.98Z"/><polygon class="cls-2" points="624.08 484.75 586.6 352.17 537.77 352.17 537.77 548.87 571.45 548.87 571.45 411.79 607.71 526.95 640.44 526.95 676.7 409.19 676.7 548.87 710.38 548.87 710.38 352.17 661.55 352.17 624.08 484.75"/><rect class="cls-2" x="748.94" y="408.45" width="37.07" height="140.42"/><rect class="cls-2" x="748.94" y="352.17" width="37.07" height="37.07"/><path class="cls-2" d="m896.26,426.72c-3.33-5.63-7.37-10.17-12.11-13.6-6.18-4.46-13.01-6.7-20.5-6.7-9.92,0-18.42,2.39-25.5,7.17-7.08,4.78-12.47,11.77-16.17,20.97-3.7,9.2-5.55,20.25-5.55,33.14v22.46c0,12.81,1.85,23.74,5.55,32.81,3.7,9.06,9.09,15.99,16.17,20.77,7.08,4.78,15.58,7.17,25.5,7.17,8.2,0,15.29-2.1,21.24-6.29,4.78-3.37,8.56-7.88,11.36-13.5v16.27c0,7.49-2.46,13.35-7.37,17.59-4.92,4.24-11.25,6.36-19.01,6.36-4.78,0-9.38-.93-13.8-2.77-4.42-1.85-8.21-4.49-11.36-7.91l-24.89,22.86c4.87,7.12,11.7,12.65,20.5,16.57,8.79,3.92,18.78,5.89,29.96,5.89,13.35,0,24.73-2.39,34.16-7.17,9.42-4.78,16.59-11.77,21.51-20.97,4.91-9.2,7.37-20.25,7.37-33.14v-136.23h-37.07v18.27Zm-2.44,79.81c-1.62,3.25-3.99,5.73-7.1,7.44-3.11,1.71-6.88,2.57-11.3,2.57-6.95,0-12.33-2.3-16.17-6.9-3.83-4.6-5.75-11.09-5.75-19.48v-22.32c0-8.57,1.92-15.22,5.75-19.95,3.83-4.73,9.22-7.1,16.17-7.1,4.42,0,8.18.88,11.3,2.64,3.11,1.76,5.48,4.31,7.1,7.64,1.62,3.34,2.44,7.4,2.44,12.18v31.52c0,4.6-.81,8.52-2.44,11.77Z"/><path class="cls-2" d="m1042.23,406.42c-7.4,0-14.18,2.32-20.36,6.97-4.77,3.59-8.85,8.3-12.24,14.11v-19.05h-39.77v140.42h39.77v-79.41c0-8.57,2.05-15.26,6.16-20.09,4.1-4.82,9.9-7.24,17.38-7.24,3.43,0,6.45.45,9.06,1.35,2.62.9,4.82,2.26,6.63,4.06l21.64-30.17c-3.52-3.61-7.64-6.34-12.38-8.18-4.73-1.85-10.03-2.77-15.9-2.77Z"/><path class="cls-2" d="m1172.37,412.57c-8.66-4.1-19.12-6.16-31.39-6.16-11.18,0-21.37,1.78-30.57,5.34-9.2,3.56-16.6,8.55-22.19,14.95l23,22.59c3.97-3.07,8.52-5.46,13.66-7.17,5.14-1.71,10.33-2.57,15.56-2.57,7.94,0,14.07,1.76,18.4,5.28s6.49,8.52,6.49,15.02v5.95h-33.96c-16.69,0-29.2,3.47-37.54,10.42-8.34,6.95-12.51,17.36-12.51,31.25,0,14.61,3.72,25.5,11.16,32.67,7.44,7.17,18.69,10.75,33.75,10.75,6.85,0,13.37-.88,19.55-2.64,6.18-1.76,11.32-4.4,15.42-7.91,1.68-1.44,3.04-3.01,4.13-4.71v13.23h33.68v-90.23c0-11-2.28-20.4-6.83-28.21-4.55-7.8-11.16-13.75-19.82-17.86Zm-14.27,105.05c-4.83,2.26-12.2,3.38-22.12,3.38-7.13,0-12.45-1.1-15.96-3.31-3.52-2.21-5.28-5.61-5.28-10.21s1.4-7.87,4.19-10.08c2.79-2.21,6.99-3.31,12.58-3.31h33.82v12.99c0,4.78-2.41,8.3-7.24,10.55Z"/><path class="cls-2" d="m1276.27,367.59h-37.07v40.85h-14.48v31.66h14.48v72.24c0,12.27,2.86,21.53,8.59,27.8,5.73,6.27,14.72,9.4,26.99,9.4h18.67v-35.71h-9.2c-2.62,0-4.6-.92-5.95-2.77-1.35-1.85-2.03-4.49-2.03-7.91v-63.04h17.18v-31.66h-17.18v-40.85Z"/><rect class="cls-2" x="1323.88" y="352.17" width="37.07" height="37.07"/><rect class="cls-2" x="1323.88" y="408.45" width="37.07" height="140.42"/><path class="cls-2" d="m1484.8,413.52c-9.06-4.73-20-7.1-32.81-7.1s-23.74,2.37-32.81,7.1c-9.06,4.73-15.96,11.63-20.7,20.7s-7.1,19.95-7.1,32.67v22.86c0,12.9,2.37,23.92,7.1,33.08,4.73,9.15,11.63,16.12,20.7,20.9,9.06,4.78,20,7.17,32.81,7.17s23.74-2.39,32.81-7.17c9.06-4.78,15.96-11.7,20.7-20.77,4.73-9.06,7.1-20,7.1-32.81v-23.27c0-12.72-2.37-23.61-7.1-32.67-4.73-9.06-11.63-15.96-20.7-20.7Zm-9.27,76.64c0,7.94-2.08,14.09-6.22,18.47-4.15,4.38-9.97,6.56-17.45,6.56s-13.26-2.19-17.32-6.56c-4.06-4.37-6.09-10.53-6.09-18.47v-23.27c0-7.85,2.05-13.93,6.16-18.26,4.1-4.33,9.85-6.49,17.25-6.49s13.3,2.16,17.45,6.49c4.15,4.33,6.22,10.42,6.22,18.26v23.27Z"/><path class="cls-2" d="m1618.12,406.42c-8.93,0-16.35,2.21-22.25,6.63-4.64,3.47-8.77,8.34-12.38,14.54v-19.14h-37.07v140.42h37.07v-84.82c0-6.94,1.87-12.33,5.61-16.17,3.74-3.83,9.04-5.75,15.89-5.75,7.21,0,12.78,1.89,16.71,5.68,3.92,3.79,5.89,9.11,5.89,15.96v85.09h37.07v-85.23c0-18.22-4.06-32.31-12.17-42.28-8.12-9.96-19.57-14.95-34.36-14.95Z"/><path class="cls-2" d="m1807.85,478.25c-4.83-5.95-10.67-9.92-17.52-11.9-6.85-1.98-15.74-3.61-26.65-4.87-.36-.09-.77-.14-1.22-.14s-.86-.04-1.22-.14c-.81-.09-1.62-.18-2.44-.27-.81-.09-1.62-.18-2.44-.27-6.31-.72-11.12-1.37-14.41-1.96-3.29-.59-6.04-1.53-8.25-2.84-2.21-1.31-3.31-3.13-3.31-5.48,0-3.06,2.07-5.46,6.22-7.17,4.15-1.71,9.96-2.57,17.45-2.57,6.13,0,12.53.95,19.21,2.84,6.67,1.89,13.08,4.55,19.21,7.98l22.05-26.92c-5.5-3.79-11.5-7.03-17.99-9.74-6.49-2.71-13.28-4.78-20.36-6.22-7.08-1.44-14.18-2.17-21.31-2.17-12.18,0-22.55,1.74-31.12,5.21-8.57,3.47-15.11,8.55-19.62,15.22-4.51,6.67-6.76,14.7-6.76,24.08,0,10.73,2.19,18.92,6.56,24.55,4.37,5.64,9.72,9.45,16.03,11.43,6.31,1.99,14.7,3.65,25.16,5.01.36,0,.74.02,1.15.07.41.05.79.11,1.15.2,1.71.18,3.4.36,5.07.54,1.67.18,3.31.36,4.94.54,5.86.54,10.42,1.15,13.66,1.83,3.25.68,5.91,1.83,7.98,3.45,2.07,1.62,3.11,4.01,3.11,7.17,0,3.43-2.39,6.11-7.17,8.05-4.78,1.94-11.5,2.91-20.16,2.91-6.68,0-13.71-1.17-21.1-3.52-7.4-2.34-14.48-5.68-21.24-10.01l-22.86,28.54c5.32,4.06,11.45,7.53,18.4,10.42,6.94,2.89,14.38,5.07,22.32,6.56,7.94,1.49,16.1,2.23,24.49,2.23,12.72,0,23.58-1.83,32.6-5.48,9.02-3.65,15.87-8.95,20.56-15.89,4.69-6.94,7.03-15.29,7.03-25.03,0-11.54-2.41-20.29-7.24-26.24Z"/></g></svg>