<?xml version="1.0" encoding="UTF-8"?><svg id="Layer_2" xmlns="http://www.w3.org/2000/svg" viewBox="0 0 431.67 598.87"><defs><style>.cls-1{fill:#fff;stroke-width:0px;}</style></defs><g id="Layer_1-2"><path class="cls-1" d="m1.23,238.78c.02-12.32.04-24.65.06-36.97-1.58,12.32-1.83,24.64-.06,36.97Z"/><path class="cls-1" d="m424.6,167.3c-2.86-9.11-5.47-18.36-8.41-27.49-.08-.48-.07-1.01-.25-1.45-19.03-45.75-48.28-82.56-91.89-107.52-12.79-7.32-25.86-13.72-39.59-18.64C249.78-.22,214.12-3.19,177.84,3.45c-17.33,3.17-34.25,8.01-50.27,15.54-18.69,8.79-36.32,19.22-51.68,33.23-13.91,12.69-26.25,26.68-36.78,42.32-5.74,8.53-11.43,17.05-15.64,26.47-.17.21-.25.45-.25.72-.92.44-1.08,1.23-.98,2.14C10.11,148.46,2.68,174.33,1.29,201.81c-.02,12.32-.04,24.65-.06,36.97,1.78,27.47,8.71,53.67,19.37,78.98,14.45,34.3,34.04,65.74,53.84,97.05,24.74,39.12,52.34,76.22,80.92,112.59,17.79,22.64,35.72,45.16,53.64,67.69,3.86,4.85,8.17,4.98,12.62.6.94-.93,1.82-1.95,2.64-2.99,16.24-20.68,32.53-41.32,48.69-62.06,32.84-42.15,64.99-84.79,93.11-130.32,20.71-33.53,40.41-67.48,52.75-105.32,6.59-20.22,11.09-40.63,12.36-61.74,1.34-22.29.24-44.26-6.57-65.97Zm-48.02,130.91c-23.12,46.53-59.65,77.3-109.85,90.7-66.81,17.83-126.41,3.89-177.5-43.26-17.11-15.79-30.76-34.61-39.29-56.18-13.49-34.07-17.5-69.49-10.3-105.83,3.25-16.4,9.58-31.6,16.71-46.57.49-1.02.78-2.13,1.16-3.2h0s-.09,0-.14,0c1.96-.65,2.23-2.54,2.99-4.08,5.75-8.32,10.99-16.98,17.12-25.06,13.22-17.41,29.41-31.51,47.9-42.93,36.18-22.36,75.56-29.48,117.31-22.81,31.91,5.1,59.79,19.33,84.77,39.67,14.73,11.99,27,26.03,37.38,41.85.35.53.89.92,1.35,1.38,0,0,0,0,0,0,.66,1.01,1.32,2.02,1.98,3.03h0s-.05,0-.05,0c1.88.41,3.42,1.22,4.52,2.39-1.1-1.17-2.64-1.98-4.52-2.39,11.16,19.17,20,39.37,23.99,61.23,7.09,38.95,2.16,76.48-15.52,112.07Z"/><path class="cls-1" d="m373.26,237.52c-18.63-12.68-39.23-19.46-61.68-20.51-31.32-1.46-60.11,7.02-87.35,22.04-16.46,9.08-32.65,18.66-49.7,26.63-27.48,12.85-56.09,17.95-86.27,13.22-8.53-1.34-16.75-3.55-25.39-7.75,1.95,7.15,4.03,13.15,7.23,18.75,3.01,6.67,6.72,12.94,10.72,19.05,1.15,1.75,2.64,2.73,4.73,3.29,10.87,2.92,21.85,3.91,33.09,2.97,15.27-1.27,29.44-6.57,43.75-11.38,30.73-10.34,62.13-13.76,94.28-9.1,28.43,4.12,54.39,14.54,77.81,31.2,1.48,1.05,2.38,1.95,3.89-.19,5.35-7.61,11.31-14.79,16.16-22.76,9.42-15.48,15.77-32.11,18.62-50.04,1.61-3.16,1.54-6.7,2.31-10.05.59-2.57-.15-3.98-2.2-5.37Z"/><path class="cls-1" d="m321.52,337.42c-25.67-16.12-53.34-25.89-83.8-27.58-25.15-1.4-49.3,3.09-72.96,11.19-14.77,5.05-29.48,10.48-45.31,11.18-5.69.25-11.4.04-18.38.04,4.84,5.49,9.05,9.35,13.84,12.59,1.27,1.05,2.47,2.21,3.83,3.13,37.78,25.62,79.18,35.86,124.43,28.56,25.49-4.12,49.15-13.19,70.11-28.62,2.82-2.04,5.67-4.03,8.44-6.14,1.93-1.47,2.5-2.66-.21-4.36Z"/><path class="cls-1" d="m314.4,93.12c23.03,16.9,39.31,38.84,49.74,65.78-2.57-1.24-5.1-2.58-7.72-3.71-8.37-3.64-16.88-6.93-25.78-9.08-1.99-.48-3.35-.98-3.17-3.47,1.29-17.95-2.45-34.56-13.07-49.51Z"/><path class="cls-1" d="m375.8,200.09c-.34-4.29-.67-8.59-1.04-12.89-.17-1.91-1.01-3.31-2.71-4.48-10.92-7.49-22.74-13.16-35.45-16.73-23.97-6.74-47.91-5.77-71.86.68-20.95,5.64-39.68,16.17-58.86,25.77-26.75,13.39-54.07,24.73-84.61,25.96-20.47.82-39.98-2.39-58.39-11.54-7.06-3.51-7.04-3.58-7.85,4.26-.9,8.61-1.68,17.22.21,25.8.12,1.49.36,2.98.33,4.47-.14,6.12,3.26,9.24,8.51,11.82,26.92,13.19,54.28,12.83,82.33,4.09,21.52-6.71,40.3-18.77,59.88-29.31,22.06-11.22,44.28-22.05,69.01-26.28h0c4.28-.64,8.56-1.28,12.84-1.92.72-.03,1.43-.06,2.15-.09,9.27-.92,18.54.27,27.82.02,5.39.7,10.78,1.4,16.17,2.1,15.24,3.21,29.48,8.93,43.04,17.83-.54-7.04-1.03-13.3-1.51-19.56Z"/><path class="cls-1" d="m113.96,94.53c.27-.35.52-.91.98-.22.04.06-.35.42-.55.64-.14-.14-.29-.28-.43-.42Z"/><path class="cls-1" d="m98.49,159.91c-.05-10.75.11-21.48,2.3-32.12,2.45-11.87,7.82-22.41,13.6-32.84-.15-.14-.29-.28-.43-.42-18.15,12.92-31.23,29.99-40.85,49.9-.91,1.75-1.82,3.5-2.74,5.24-.73.59-1.27,1.26-1.05,2.28-.13.24-.2.5-.22.77,0,0,.1,0,.1,0-.64,1.34-1.28,2.67-1.93,4.01,0,0-.26.26-.26.26l.15.34c-4.08,8.18-6.01,17.06-8.45,25.78-.47,1.67.1,2.41,1.43,3.15,16.43,9.11,33.71,15.13,53.61,14.98-7.19-10.08-11.83-20.59-13.7-32.22.47-3.23-1.57-6.1-1.58-9.11Z"/></g></svg>